<svg width="26" height="25" viewBox="0 0 26 25" xmlns="http://www.w3.org/2000/svg">
<path d="M26 12.8403C26 5.74875 20.1793 0 12.9997 0C5.82011 0 0 5.74875 0 12.8403C0 18.4689 3.66685 23.2511 8.76996 24.9848C9.08098 24.763 9.43919 24.4895 9.43919 24.029C9.43919 23.323 9.42384 21.5062 9.42384 21.5062C9.42384 21.5062 8.8598 21.6011 8.0541 21.6011C6.0248 21.6011 5.38343 20.329 5.07809 19.6174C4.68065 18.6902 4.1655 18.2549 3.61795 17.9067C3.28191 17.6927 3.20458 17.4411 3.5935 17.3687C5.38968 17.0362 5.84854 19.3697 7.04826 19.7415C7.90456 20.0066 9.00536 19.8921 9.55291 19.5439C9.62512 18.8312 10.1482 18.2151 10.5838 17.8904C7.5327 17.6023 5.72401 16.5616 4.78584 14.8886L4.6852 14.701L4.44923 14.1697L4.37986 13.9793C4.0859 13.1301 3.95626 12.1574 3.95626 11.0712C3.95626 9.14263 4.56807 8.41477 5.38968 7.38644C4.76139 5.18769 5.61541 3.6848 5.61541 3.6848C5.61541 3.6848 6.93625 3.41578 9.43237 5.17197C10.7851 4.60248 14.3928 4.55475 16.0997 5.0456C17.1465 4.36548 19.0632 3.40005 19.8359 3.67076C20.0451 4.00155 20.496 4.96698 20.11 7.08653C20.3721 7.55156 21.7367 8.54169 21.7418 11.3419C21.7196 12.3748 21.6105 13.2464 21.4075 13.9838L21.2949 14.3612C21.2949 14.3612 21.2306 14.5392 21.1601 14.7089L21.0777 14.8964C20.1725 16.8492 18.316 17.5782 15.3162 17.8815C16.2885 18.4824 16.5671 19.2366 16.5671 21.2776C16.5671 23.3185 16.5392 23.5926 16.546 24.0621C16.5517 24.4771 16.8877 24.7754 17.1897 25.0011C22.3144 23.2792 26.0011 18.4858 26.0011 12.842L26 12.8403Z"/>
</svg>
