<?xml version="1.0" encoding="UTF-8"?>
<svg id="_레이어_2" data-name="레이어 2" xmlns="http://www.w3.org/2000/svg" viewBox="0 0 24 24">
  <defs>
    <style>
      .cls-1 {
        stroke-width: 0px;
      }
    </style>
  </defs>
  <g id="_레이어_1-2" data-name="레이어 1">
    <g>
      <g>
        <path class="cls-1" d="M14.6,3.4l-1.64-2.84c-.43-.74-1.5-.74-1.93,0l-1.64,2.84c.82-.25,1.7-.39,2.6-.39s1.78.14,2.6.39Z"/>
        <path class="cls-1" d="M9.4,20.6l1.64,2.84c.43.74,1.5.74,1.93,0l1.64-2.84c-.82.25-1.7.39-2.6.39s-1.78-.14-2.6-.39Z"/>
        <path class="cls-1" d="M7.76,4.08l-3.17-.85c-.83-.22-1.58.54-1.36,1.36l.85,3.17c.84-1.56,2.12-2.84,3.68-3.68Z"/>
        <path class="cls-1" d="M16.24,19.92l3.17.85c.83.22,1.58-.54,1.36-1.36l-.85-3.17c-.84,1.56-2.12,2.84-3.68,3.68Z"/>
        <path class="cls-1" d="M3.4,9.4l-2.84,1.64c-.74.43-.74,1.5,0,1.93l2.84,1.64c-.25-.82-.39-1.7-.39-2.6s.14-1.78.39-2.6Z"/>
        <path class="cls-1" d="M20.6,14.6l2.84-1.64c.74-.43.74-1.5,0-1.93l-2.84-1.64c.25.82.39,1.7.39,2.6s-.14,1.78-.39,2.6Z"/>
        <path class="cls-1" d="M4.08,16.24l-.85,3.17c-.22.83.54,1.58,1.36,1.36l3.17-.85c-1.56-.84-2.84-2.12-3.68-3.68Z"/>
        <path class="cls-1" d="M19.92,7.76l.85-3.17c.22-.83-.54-1.58-1.36-1.36l-3.17.85c1.56.84,2.85,2.12,3.68,3.68Z"/>
      </g>
      <circle class="cls-1" cx="12" cy="12" r="7.18"/>
    </g>
  </g>
</svg>