<?xml version="1.0" encoding="UTF-8"?>
<svg id="_레이어_2" data-name="레이어 2" xmlns="http://www.w3.org/2000/svg" viewBox="0 0 18.61 18.61">
  <defs>
    <style>
      .cls-1 {
        stroke-width: 0px;
      }
    </style>
  </defs>
  <g id="_레이어_1-2" data-name="레이어 1">
    <g>
      <path class="cls-1" d="M8.61,17.22c-2.21,0-4.41-.84-6.09-2.52-1.63-1.63-2.52-3.79-2.52-6.09S.9,4.15,2.52,2.52C4.15.9,6.31,0,8.61,0s4.46.9,6.09,2.52h0c1.63,1.63,2.52,3.79,2.52,6.09s-.9,4.46-2.52,6.09c-1.68,1.68-3.88,2.52-6.09,2.52ZM8.61,1c-2.03,0-3.94.79-5.38,2.23-1.44,1.44-2.23,3.35-2.23,5.38s.79,3.94,2.23,5.38c2.97,2.97,7.8,2.97,10.76,0,1.44-1.44,2.23-3.35,2.23-5.38s-.79-3.94-2.23-5.38h0c-1.44-1.44-3.35-2.23-5.38-2.23Z"/>
      <path class="cls-1" d="M18.11,18.61c-.13,0-.26-.05-.35-.15l-3.77-3.77c-.2-.2-.2-.51,0-.71s.51-.2.71,0l3.77,3.77c.2.2.2.51,0,.71-.1.1-.23.15-.35.15Z"/>
    </g>
  </g>
</svg>