<?xml version="1.0" encoding="UTF-8"?>
<svg id="_레이어_2" data-name="레이어 2" xmlns="http://www.w3.org/2000/svg" viewBox="0 0 21.72 21.72">
  <defs>
    <style>
      .cls-1 {
        stroke-width: 0px;
      }
    </style>
  </defs>
  <g id="_레이어_1-2" data-name="레이어 1">
    <g>
      <path class="cls-1" d="M.5,21.72c-.13,0-.26-.05-.35-.15-.2-.2-.2-.51,0-.71L20.87.15c.2-.2.51-.2.71,0s.2.51,0,.71L.85,21.58c-.1.1-.23.15-.35.15Z"/>
      <path class="cls-1" d="M21.22,21.72c-.13,0-.26-.05-.35-.15L.15.85C-.05.66-.05.34.15.15S.66-.05.85.15l20.72,20.72c.2.2.2.51,0,.71-.1.1-.23.15-.35.15Z"/>
    </g>
  </g>
</svg>