<?xml version="1.0" encoding="UTF-8"?>
<svg id="_레이어_2" data-name="레이어 2" xmlns="http://www.w3.org/2000/svg" viewBox="0 0 24 23.61">
  <defs>
    <style>
      .cls-1 {
        stroke-width: 0px;
      }
    </style>
  </defs>
  <g id="_레이어_1-2" data-name="레이어 1">
    <g>
      <g>
        <path class="cls-1" d="M6.41,21.94c0-.33-.13-1.59-1.43-3.03-1.3,1.45-1.42,2.71-1.43,3.03,0,.05,0,.08,0,.08,0,.88.64,1.6,1.43,1.6s1.43-.71,1.43-1.6c0,0,0-.03,0-.08Z"/>
        <path class="cls-1" d="M13.43,21.94c0-.33-.13-1.59-1.43-3.03-1.3,1.45-1.42,2.71-1.43,3.03,0,.05,0,.08,0,.08,0,.88.64,1.6,1.43,1.6s1.43-.71,1.43-1.6c0,0,0-.03,0-.08Z"/>
        <path class="cls-1" d="M20.46,21.94c0-.33-.13-1.59-1.43-3.03-1.3,1.45-1.42,2.71-1.43,3.03,0,.05,0,.08,0,.08,0,.88.64,1.6,1.43,1.6s1.43-.71,1.43-1.6c0,0,0-.03,0-.08Z"/>
      </g>
      <path class="cls-1" d="M24,9.85c0-2.47-1.35-4.59-3.27-5.5-.64-.3-1.34-.47-2.08-.47h-1.64c-.76-2.27-2.7-3.89-5-3.89s-4.24,1.62-5,3.89h-1.64c-.37,0-.73.04-1.08.12C1.84,4.57,0,6.97,0,9.85c0,2.35,1.23,4.36,3,5.33.71.39,1.5.63,2.35.63h13.29c.98,0,1.88-.31,2.67-.83,1.6-1.03,2.68-2.94,2.68-5.14Z"/>
    </g>
  </g>
</svg>