<?xml version="1.0" encoding="UTF-8"?>
<svg id="_레이어_2" data-name="레이어 2" xmlns="http://www.w3.org/2000/svg" viewBox="0 0 19.65 20.15">
  <defs>
    <style>
      .cls-1 {
        stroke-width: 0px;
      }
    </style>
  </defs>
  <g id="_레이어_1-2" data-name="레이어 1">
    <g>
      <path class="cls-1" d="M13.65,20.15H1.82c-1,0-1.82-.82-1.82-1.82V6c0-1,.82-1.82,1.82-1.82h11.83c1,0,1.82.82,1.82,1.82v12.34c0,1-.82,1.82-1.82,1.82ZM1.82,5.18c-.45,0-.82.37-.82.82v12.34c0,.45.37.82.82.82h11.83c.45,0,.82-.37.82-.82V6c0-.45-.37-.82-.82-.82H1.82Z"/>
      <path class="cls-1" d="M17.83,15.97h-2.86c-.28,0-.5-.22-.5-.5V6c0-.45-.37-.82-.82-.82-.28,0-.5-.22-.5-.5s.22-.5.5-.5c1,0,1.82.82,1.82,1.82v8.98h2.36c.45,0,.82-.37.82-.82V1.82c0-.45-.37-.82-.82-.82H6c-.45,0-.82.37-.82.82v2.86c0,.28-.22.5-.5.5s-.5-.22-.5-.5V1.82c0-1,.82-1.82,1.82-1.82h11.83c1,0,1.82.82,1.82,1.82v12.34c0,1-.82,1.82-1.82,1.82Z"/>
    </g>
  </g>
</svg>