<?xml version="1.0" encoding="UTF-8"?>
<svg id="_레이어_2" data-name="레이어 2" xmlns="http://www.w3.org/2000/svg" viewBox="0 0 18.02 17.97">
  <defs>
    <style>
      .cls-1 {
        stroke-width: 0px;
      }
    </style>
  </defs>
  <g id="_레이어_1-2" data-name="레이어 1">
    <g>
      <path class="cls-1" d="M16.9,12.53c-.06,0-.13-.01-.19-.04-.26-.1-.38-.39-.28-.65,1.19-2.94.51-6.29-1.73-8.54C11.64.23,6.64.23,3.56,3.3c-.2.2-.51.2-.71,0s-.2-.51,0-.71C6.32-.87,11.95-.87,15.42,2.6c2.53,2.53,3.3,6.31,1.95,9.62-.08.19-.27.31-.46.31Z"/>
      <path class="cls-1" d="M5.54,4.33h-3.38c-.28,0-.5-.22-.5-.5V.79c0-.28.22-.5.5-.5s.5.22.5.5v2.54h2.88c.28,0,.5.22.5.5s-.22.5-.5.5Z"/>
      <path class="cls-1" d="M8.88,17.97c-2.37,0-4.6-.92-6.28-2.6C.08,12.84-.69,9.06.65,5.75c.1-.26.4-.38.65-.28.26.1.38.39.28.65-1.19,2.94-.51,6.29,1.73,8.54,1.49,1.49,3.47,2.31,5.57,2.31s4.08-.82,5.57-2.31c.2-.2.51-.2.71,0s.2.51,0,.71c-1.68,1.68-3.91,2.6-6.28,2.6Z"/>
      <path class="cls-1" d="M15.86,17.68c-.28,0-.5-.22-.5-.5v-2.54h-2.88c-.28,0-.5-.22-.5-.5s.22-.5.5-.5h3.38c.28,0,.5.22.5.5v3.04c0,.28-.22.5-.5.5Z"/>
    </g>
  </g>
</svg>