<?xml version="1.0" encoding="UTF-8"?>
<svg id="_레이어_2" data-name="레이어 2" xmlns="http://www.w3.org/2000/svg" viewBox="0 0 22.87 13.58">
  <defs>
    <style>
      .cls-1 {
        stroke-width: 0px;
      }
    </style>
  </defs>
  <g id="_레이어_1-2" data-name="레이어 1">
    <g>
      <path class="cls-1" d="M6.78,13.58c-.13,0-.26-.05-.35-.15L.15,7.15c-.09-.09-.15-.22-.15-.35s.05-.26.15-.35L6.44.15c.2-.2.51-.2.71,0s.2.51,0,.71L1.21,6.79l5.93,5.93c.2.2.2.51,0,.71-.1.1-.23.15-.35.15Z"/>
      <path class="cls-1" d="M22.37,7.41H.5c-.28,0-.5-.22-.5-.5s.22-.5.5-.5h21.87c.28,0,.5.22.5.5s-.22.5-.5.5Z"/>
    </g>
  </g>
</svg>