<?xml version="1.0" encoding="UTF-8"?>
<svg id="_레이어_2" data-name="레이어 2" xmlns="http://www.w3.org/2000/svg" viewBox="0 0 24.16 24.26">
  <defs>
    <style>
      .cls-1 {
        stroke-width: 0px;
      }
    </style>
  </defs>
  <g id="_레이어_1-2" data-name="레이어 1">
    <g>
      <path class="cls-1" d="M1.1,24.17l13.48-7.4c.47-.26.52-.91.1-1.24l-9.65-7.49c-.42-.33-1.04-.12-1.18.4L.02,23.33c-.16.63.51,1.15,1.08.84Z"/>
      <polygon class="cls-1" points="21.7 13.67 20.4 12.07 22.86 10.88 24.16 12.48 21.7 13.67"/>
      <polygon class="cls-1" points="3.98 2.7 5.9 3.46 6.3 .76 4.38 0 3.98 2.7"/>
      <polygon class="cls-1" points="14.2 10.46 13.61 8.48 16.34 8.32 16.93 10.29 14.2 10.46"/>
      <circle class="cls-1" cx="17.97" cy="4.13" r=".67"/>
      <circle class="cls-1" cx="10.11" cy="6.1" r=".67"/>
    </g>
  </g>
</svg>