<svg width="26" height="22" viewBox="0 0 26 22" fill="none" xmlns="http://www.w3.org/2000/svg">
<g clip-path="url(#clip0_794_459)">
<path d="M5.56999 9.75C5.14999 9.67 4.66999 9.63 4.14999 9.63V10.6C4.29999 10.6 4.41999 10.6 4.49999 10.6C5.62999 10.55 6.19999 10.39 6.19999 10.14C6.19999 9.97001 5.98999 9.85001 5.57999 9.77001L5.56999 9.75Z" fill="#737373"/>
<path d="M14.42 7.64001C13.59 7.64001 12.95 8.33002 12.95 9.14002C12.95 9.95002 13.59 10.64 14.42 10.64C15.25 10.64 15.89 9.95002 15.89 9.14002C15.89 8.33002 15.25 7.64001 14.42 7.64001Z" fill="#737373"/>
<path d="M20.62 0H5.19C2.32 0 0 2.32 0 5.19V13.23C0 16.09 2.32 18.42 5.19 18.42H11.39L12.38 20.82C12.57 21.29 13.24 21.29 13.44 20.82L14.43 18.42H20.63C23.49 18.42 25.82 16.1 25.82 13.23V5.19C25.82 2.33 23.5 0 20.63 0H20.62ZM6.74 11.16C6.36 11.47 5.63 11.64 4.55 11.7C4.4 11.7 4 11.7 3.36 11.7H3.02V6.56C4.22 6.56 4.88 6.57 5.5 6.7C6.65 6.93 7.06 7.5 7.06 8.12C7.06 8.52 6.89 8.85 6.55 9.09C7.09 9.29 7.3 9.57 7.3 10.13C7.3 10.51 7.11 10.86 6.73 11.16H6.74ZM11.52 11.7H7.94V6.56H9.11V10.54H11.52V11.7ZM15.73 11.46C15.33 11.7 14.89 11.82 14.42 11.82C13.47 11.82 12.61 11.31 12.14 10.48C11.91 10.07 11.79 9.62 11.79 9.14C11.79 8.17 12.3 7.3 13.1 6.82C13.5 6.58 13.94 6.46 14.41 6.46C15.36 6.46 16.21 6.97 16.69 7.8C16.92 8.21 17.04 8.66 17.04 9.14C17.04 10.11 16.53 10.98 15.73 11.46ZM22.57 10.48C22.09 11.3 21.23 11.82 20.27 11.82C19.79 11.82 19.36 11.7 18.96 11.45C18.15 10.97 17.64 10.1 17.64 9.13C17.64 8.65 17.76 8.2 18 7.79C18.47 6.97 19.33 6.45 20.28 6.45C21.01 6.45 21.77 6.77 22.25 7.24L21.42 8.05C21.18 7.78 20.72 7.62 20.28 7.62C19.47 7.62 18.8 8.31 18.8 9.13C18.8 9.95 19.47 10.63 20.28 10.63C20.98 10.63 21.48 10.21 21.71 9.68H20.45V8.57H22.88C22.92 8.71 22.94 8.89 22.94 9.12C22.94 9.6 22.82 10.05 22.58 10.46L22.57 10.48Z" fill="#737373"/>
<path d="M5.32999 8.64002C5.75999 8.55002 5.96999 8.40002 5.95999 8.24002C5.95999 7.88002 5.04999 7.71002 4.14999 7.71002V8.72002H4.36999C4.76999 8.72002 5.07999 8.69002 5.31999 8.64002H5.32999Z" fill="#737373"/>
</g>
<defs>
<clipPath id="clip0_794_459">
<rect width="25.81" height="21.17" fill="white"/>
</clipPath>
</defs>
</svg>
