<?xml version="1.0" encoding="UTF-8"?>
<svg id="_레이어_2" data-name="레이어 2" xmlns="http://www.w3.org/2000/svg" viewBox="0 0 23.52 24">
  <defs>
    <style>
      .cls-1 {
        fill-rule: evenodd;
        stroke-width: 0px;
      }
    </style>
  </defs>
  <g id="_레이어_1-2" data-name="레이어 1">
    <g>
      <path class="cls-1" d="M23.52,12.27c0-.85-.08-1.67-.22-2.45h-11.3v4.64h6.46c-.28,1.5-1.12,2.77-2.39,3.62v3.01h3.88c2.27-2.09,3.58-5.17,3.58-8.82h0Z"/>
      <path class="cls-1" d="M12,24c3.24,0,5.96-1.07,7.94-2.91l-3.88-3.01c-1.07.72-2.45,1.15-4.06,1.15-3.13,0-5.77-2.11-6.71-4.95H1.28v3.11c1.97,3.92,6.03,6.61,10.72,6.61h0Z"/>
      <path class="cls-1" d="M5.29,14.28c-.24-.72-.38-1.49-.38-2.28s.14-1.56.38-2.28v-3.11H1.28c-.81,1.62-1.28,3.45-1.28,5.39s.46,3.77,1.28,5.39l4.01-3.11h0Z"/>
      <path class="cls-1" d="M12,4.77c1.76,0,3.34.61,4.59,1.79l3.44-3.44c-2.08-1.94-4.79-3.13-8.03-3.13C7.31,0,3.25,2.69,1.28,6.61l4.01,3.11c.94-2.84,3.59-4.95,6.71-4.95h0Z"/>
    </g>
  </g>
</svg>