<?xml version="1.0" standalone="no"?>
<!DOCTYPE svg PUBLIC "-//W3C//DTD SVG 20010904//EN"
 "http://www.w3.org/TR/2001/REC-SVG-20010904/DTD/svg10.dtd">
<svg version="1.0" xmlns="http://www.w3.org/2000/svg"
 width="257.000000pt" height="257.000000pt" viewBox="0 0 257.000000 257.000000"
 preserveAspectRatio="xMidYMid meet">
<metadata>
Created by potrace 1.14, written by Peter Selinger 2001-2017
</metadata>
<g transform="translate(0.000000,257.000000) scale(0.100000,-0.100000)"
fill="#000000" stroke="none">
<path d="M1225 2554 c-73 -25 -115 -88 -119 -178 -2 -49 -2 -49 -52 -68 -59
-23 -126 -73 -148 -109 -18 -30 -27 -97 -15 -105 24 -14 2 -35 -75 -72 -88
-42 -155 -100 -158 -137 -2 -35 -1 -59 6 -86 7 -23 3 -28 -26 -39 -199 -76
-313 -185 -307 -293 4 -59 30 -107 87 -159 45 -39 181 -116 239 -133 21 -6 22
-8 10 -33 -54 -109 74 -221 318 -276 39 -9 82 -17 97 -18 19 -2 31 -10 38 -28
39 -91 156 -138 238 -96 31 16 80 70 93 104 6 15 17 22 39 23 16 1 33 2 38 3
16 4 78 16 87 17 6 1 33 10 60 19 178 61 261 149 229 242 l-13 37 47 17 c115
44 232 125 272 189 25 41 29 138 7 181 -29 56 -112 121 -220 173 l-105 51 13
37 c16 47 5 87 -37 130 -28 30 -134 89 -191 107 -14 5 -16 10 -7 25 14 28 12
77 -5 110 -20 39 -91 98 -126 106 -16 4 -31 11 -34 16 -4 5 -14 9 -24 9 -16 0
-19 8 -19 49 0 135 -117 227 -237 185z"/>
<path d="M1248 620 c-20 -15 -27 -32 -32 -76 -8 -68 -33 -127 -72 -171 -23
-25 -39 -33 -79 -37 -118 -14 -212 -41 -280 -80 -101 -60 -86 -134 36 -182
120 -46 264 -67 469 -66 237 0 399 30 508 91 41 24 44 29 44 71 0 11 0 24 -1
30 -2 18 -46 53 -97 75 -50 23 -223 65 -267 65 -54 0 -112 101 -131 230 -5 34
-36 70 -61 70 -7 0 -24 -9 -37 -20z"/>
</g>
</svg>
