<?xml version="1.0" encoding="UTF-8"?>
<svg id="_레이어_2" data-name="레이어 2" xmlns="http://www.w3.org/2000/svg" viewBox="0 0 21.19 21.19">
  <defs>
    <style>
      .cls-1 {
        stroke-width: 0px;
      }
    </style>
  </defs>
  <g id="_레이어_1-2" data-name="레이어 1">
    <g>
      <path class="cls-1" d="M.5,21.19c-.13,0-.26-.05-.35-.15-.14-.14-.18-.34-.12-.52l1.64-4.63c.02-.07.06-.13.12-.19L17.34.15c.09-.09.22-.15.35-.15h0c.13,0,.26.05.35.15l2.99,2.99c.09.09.15.22.15.35s-.05.26-.15.35l-15.55,15.55c-.05.05-.12.09-.19.12l-4.63,1.64c-.05.02-.11.03-.17.03ZM2.57,16.33l-1.25,3.54,3.54-1.25L19.98,3.49l-2.29-2.29L2.57,16.33Z"/>
      <path class="cls-1" d="M18.25,6.43c-.13,0-.26-.05-.35-.15l-2.05-2.05c-.2-.2-.2-.51,0-.71s.51-.2.71,0l2.05,2.05c.2.2.2.51,0,.71-.1.1-.23.15-.35.15Z"/>
      <path class="cls-1" d="M17.07,7.61c-.13,0-.26-.05-.35-.15l-2.05-2.05c-.2-.2-.2-.51,0-.71s.51-.2.71,0l2.05,2.05c.2.2.2.51,0,.71-.1.1-.23.15-.35.15Z"/>
    </g>
  </g>
</svg>