<?xml version="1.0" encoding="UTF-8"?>
<svg id="_레이어_2" data-name="레이어 2" xmlns="http://www.w3.org/2000/svg" viewBox="0 0 14.1 14.59">
  <defs>
    <style>
      .cls-1 {
        stroke-width: 0px;
      }
    </style>
  </defs>
  <g id="_레이어_1-2" data-name="레이어 1">
    <path class="cls-1" d="M12.37,6.43s-4.34-.37-4.58-5.54c-.02-.49-.33-.89-.74-.89s-.72.4-.74.89c-.24,5.17-4.58,5.54-4.58,5.54-1.6.21-1.73.52-1.73.86s.13.65,1.73.86c0,0,4.41.43,4.58,5.54.02.49.33.89.74.89s.73-.4.74-.89c.17-5.1,4.58-5.54,4.58-5.54,1.6-.21,1.73-.52,1.73-.86s-.13-.65-1.73-.86Z"/>
  </g>
</svg>