<?xml version="1.0" encoding="UTF-8"?>
<svg id="_레이어_2" data-name="레이어 2" xmlns="http://www.w3.org/2000/svg" viewBox="0 0 21.19 22.38">
  <defs>
    <style>
      .cls-1 {
        stroke-width: 0px;
      }
    </style>
  </defs>
  <g id="_레이어_1-2" data-name="레이어 1">
    <g>
      <path class="cls-1" d="M12.05,22.38h-2.91c-.72,0-1.31-.59-1.31-1.31v-1.4c-1.18-.38-2.27-1.01-3.19-1.84l-1.21.7c-.3.18-.66.22-1,.13-.34-.09-.62-.31-.8-.61L.18,15.53c-.36-.63-.15-1.43.48-1.79l1.21-.7c-.13-.62-.2-1.24-.2-1.84s.07-1.22.2-1.84l-1.21-.7c-.3-.17-.52-.46-.61-.8-.09-.34-.04-.69.13-1l1.45-2.52c.36-.63,1.17-.84,1.79-.48l1.21.7c.92-.83,2.01-1.46,3.19-1.84v-1.4c0-.72.59-1.31,1.31-1.31h2.91c.72,0,1.31.59,1.31,1.31v1.4c1.18.39,2.27,1.01,3.19,1.84l1.21-.7c.63-.36,1.43-.15,1.79.48l1.45,2.52c.18.3.22.66.13,1-.09.34-.31.62-.61.8l-1.21.7c.13.62.2,1.24.2,1.84s-.07,1.22-.2,1.84l1.21.7c.63.36.84,1.17.48,1.79l-1.45,2.52c-.18.3-.46.52-.8.61-.34.09-.69.04-1-.13l-1.21-.7c-.92.83-2.01,1.46-3.19,1.84v1.4c0,.72-.59,1.31-1.31,1.31ZM4.78,16.59l.27.27c.95.93,2.13,1.61,3.41,1.96l.37.1v2.15c0,.17.14.31.31.31h2.91c.17,0,.31-.14.31-.31v-2.15l.37-.1c1.28-.36,2.46-1.04,3.41-1.96l.27-.27,1.86,1.07c.07.04.16.05.24.03.08-.02.15-.07.19-.15l1.45-2.52c.09-.15.04-.34-.11-.43l-1.86-1.08.09-.37c.17-.66.26-1.33.26-1.96s-.09-1.3-.26-1.96l-.09-.37,1.86-1.08c.07-.04.12-.11.15-.19.02-.08.01-.17-.03-.24l-1.45-2.52c-.09-.15-.28-.2-.43-.11l-1.86,1.07-.27-.26c-.95-.93-2.12-1.61-3.41-1.96l-.37-.1V1.31c0-.17-.14-.31-.31-.31h-2.91c-.17,0-.31.14-.31.31v2.15l-.37.1c-1.28.36-2.46,1.04-3.41,1.96l-.27.26-1.86-1.07c-.15-.09-.34-.04-.43.11l-1.45,2.52c-.04.07-.05.16-.03.24.02.08.07.15.15.19l1.86,1.08-.09.37c-.17.66-.26,1.33-.26,1.96s.09,1.3.26,1.96l.09.37-1.86,1.08c-.15.09-.2.28-.11.43l1.45,2.52c.04.07.11.12.19.15.08.02.17,0,.24-.03l1.86-1.07Z"/>
      <path class="cls-1" d="M10.6,16.04c-2.68,0-4.85-2.18-4.85-4.85s2.18-4.85,4.85-4.85,4.85,2.18,4.85,4.85-2.18,4.85-4.85,4.85ZM10.6,7.34c-2.12,0-3.85,1.73-3.85,3.85s1.73,3.85,3.85,3.85,3.85-1.73,3.85-3.85-1.73-3.85-3.85-3.85Z"/>
    </g>
  </g>
</svg>