<?xml version="1.0" encoding="UTF-8"?>
<svg id="_레이어_2" data-name="레이어 2" xmlns="http://www.w3.org/2000/svg" viewBox="0 0 25.25 21.81">
  <defs>
    <style>
      .cls-1 {
        stroke-width: 0px;
      }
    </style>
  </defs>
  <g id="_레이어_1-2" data-name="레이어 1">
    <g>
      <path class="cls-1" d="M18.46,17.69c-.13,0-.26-.05-.35-.15-.2-.2-.2-.51,0-.71l5.94-5.94-5.93-5.93c-.2-.2-.2-.51,0-.71s.51-.2.71,0l6.28,6.28c.09.09.15.22.15.35s-.05.26-.15.35l-6.29,6.29c-.1.1-.23.15-.35.15Z"/>
      <path class="cls-1" d="M24.75,11.28H8.13c-.28,0-.5-.22-.5-.5s.22-.5.5-.5h16.62c.28,0,.5.22.5.5s-.22.5-.5.5Z"/>
    </g>
    <path class="cls-1" d="M14.41,21.81H.5c-.28,0-.5-.22-.5-.5V.5C0,.22.22,0,.5,0h13.91c.28,0,.5.22.5.5v5.58c0,.28-.22.5-.5.5s-.5-.22-.5-.5V1H1v19.81h12.91v-5.08c0-.28.22-.5.5-.5s.5.22.5.5v5.58c0,.28-.22.5-.5.5Z"/>
  </g>
</svg>