<?xml version="1.0" encoding="UTF-8"?>
<svg id="_레이어_2" data-name="레이어 2" xmlns="http://www.w3.org/2000/svg" viewBox="0 0 15.18 21">
  <defs>
    <style>
      .cls-1 {
        stroke-width: 0px;
      }
    </style>
  </defs>
  <g id="_레이어_1-2" data-name="레이어 1">
    <g>
      <path class="cls-1" d="M9.71,21h-4.23c-3.02,0-5.48-2.46-5.48-5.47V5.12c0-.28.22-.5.5-.5h14.18c.28,0,.5.22.5.5v10.41c0,3.02-2.46,5.47-5.48,5.47ZM1,5.62v9.91c0,2.47,2.01,4.47,4.48,4.47h4.23c2.47,0,4.48-2.01,4.48-4.47V5.62H1Z"/>
      <g>
        <path class="cls-1" d="M5.33,15.68c-.28,0-.5-.22-.5-.5v-7.21c0-.28.22-.5.5-.5s.5.22.5.5v7.21c0,.28-.22.5-.5.5Z"/>
        <path class="cls-1" d="M9.85,15.68c-.28,0-.5-.22-.5-.5v-7.21c0-.28.22-.5.5-.5s.5.22.5.5v7.21c0,.28-.22.5-.5.5Z"/>
      </g>
      <path class="cls-1" d="M14.68,3.26H.5c-.28,0-.5-.22-.5-.5s.22-.5.5-.5h14.18c.28,0,.5.22.5.5s-.22.5-.5.5Z"/>
      <path class="cls-1" d="M9.85,3.26h-4.52c-.28,0-.5-.22-.5-.5v-.99c0-.98.79-1.77,1.77-1.77h1.98c.98,0,1.77.79,1.77,1.77v.99c0,.28-.22.5-.5.5ZM5.83,2.26h3.52v-.49c0-.42-.34-.77-.77-.77h-1.98c-.42,0-.77.34-.77.77v.49Z"/>
    </g>
  </g>
</svg>