<?xml version="1.0" encoding="UTF-8"?>
<svg id="_레이어_2" data-name="레이어 2" xmlns="http://www.w3.org/2000/svg" viewBox="0 0 23.68 23.68">
  <defs>
    <style>
      .cls-1 {
        stroke-width: 0px;
      }
    </style>
  </defs>
  <g id="_레이어_1-2" data-name="레이어 1">
    <g>
      <path class="cls-1" d="M8.02,23.68s-.03,0-.04,0c-.2-.02-.37-.15-.43-.34L.03.66c-.06-.18-.01-.38.12-.51C.28.01.48-.03.66.03l22.68,7.51c.19.06.33.23.34.43s-.09.39-.27.48l-9.83,5.12-5.12,9.83c-.09.17-.26.27-.44.27ZM1.29,1.29l6.83,20.61,4.65-8.92c.05-.09.12-.17.21-.21l8.92-4.65L1.29,1.29Z"/>
      <path class="cls-1" d="M13.21,13.71c-.13,0-.26-.05-.35-.15l-5.01-5.01c-.2-.2-.2-.51,0-.71s.51-.2.71,0l5.01,5.01c.2.2.2.51,0,.71-.1.1-.23.15-.35.15Z"/>
      <path class="cls-1" d="M6.63,7.13c-.13,0-.26-.05-.35-.15l-1.78-1.79c-.2-.2-.2-.51,0-.71s.51-.2.71,0l1.78,1.79c.2.2.2.51,0,.71-.1.1-.23.15-.35.15Z"/>
    </g>
  </g>
</svg>