<?xml version="1.0" encoding="UTF-8"?>
<svg id="_레이어_2" data-name="레이어 2" xmlns="http://www.w3.org/2000/svg" viewBox="0 0 16.27 24">
  <defs>
    <style>
      .cls-1 {
        stroke-width: 0px;
      }
    </style>
  </defs>
  <g id="_레이어_1-2" data-name="레이어 1">
    <g>
      <path class="cls-1" d="M16.26,15.45c-.04-1.15-.39-4.6-3.07-9.07h0s0,0,0,0c0,0,0,0,0,0v.55c-.09.9-.61,1.79-.61,1.79.02-4.41-4.45-8.72-4.45-8.72,0,4.31-4.15,7.93-4.15,7.93-.07-1.87-1.37-2.83-1.37-2.83-.23,1.95-.83,3.64-1.14,4.42-.05.13-.1.25-.15.37-.03.06-.04.1-.04.1h0C.22,12.66.03,14.64,0,15.45c0,.27,0,.42,0,.42C0,20.36,3.64,24,8.13,24s8.13-3.64,8.13-8.13c0,0,0-.14,0-.42ZM11.25,19.6c0,1.72-1.39,3.11-3.11,3.11s-3.11-1.39-3.11-3.11c0,0,0-.06,0-.16.01-.31.08-1.07.49-2.09h0s0-.01.02-.04c.02-.05.04-.09.06-.14.12-.3.35-.94.44-1.69,0,0,.5.37.52,1.08,0,0,1.59-1.39,1.59-3.04,0,0,1.71,1.65,1.7,3.34,0,0,.2-.34.23-.69v-.21s0,0,0,0h0s0,0,0,0c1.03,1.71,1.16,3.03,1.18,3.47,0,.1,0,.16,0,.16Z"/>
      <polygon class="cls-1" points="10.07 15.96 10.07 15.96 10.07 15.96 10.07 15.96"/>
      <polygon class="cls-1" points="13.19 6.37 13.19 6.38 13.19 6.37 13.19 6.37"/>
    </g>
  </g>
</svg>