<?xml version="1.0" encoding="UTF-8"?>
<svg id="_레이어_2" data-name="레이어 2" xmlns="http://www.w3.org/2000/svg" viewBox="0 0 13.04 16.23">
  <defs>
    <style>
      .cls-1 {
        stroke-width: 0px;
      }
    </style>
  </defs>
  <g id="_레이어_1-2" data-name="레이어 1">
    <path class="cls-1" d="M13.04,6.52c0-1.42-.46-2.72-1.22-3.79v2.1c0,.33-.27.6-.6.6s-.6-.27-.6-.6V1.45c-.19-.15-.39-.3-.6-.43v2.93c0,.33-.27.6-.6.6s-.6-.27-.6-.6V.42c-.2-.07-.4-.14-.6-.19v2.85c0,.33-.27.6-.6.6s-.6-.27-.6-.6V.02c-.16-.01-.31-.02-.47-.02C2.92,0,0,2.92,0,6.52v3.2c0,3.6,2.92,6.52,6.52,6.52h5.81c.39,0,.71-.32.71-.71v-5.1c0-.05-.02-.09-.03-.14.02-.19.03-.37.03-.57v-3.2ZM2.18,9.41c-.73,0-1.32-.73-1.32-1.64,0-.15.04-.29.07-.43.42,0,.87-.17,1.23-.53.18-.18.3-.38.39-.58.54.21.93.8.93,1.54,0,.9-.59,1.64-1.32,1.64ZM8.08,9.41c-.73,0-1.32-.73-1.32-1.64,0-.74.4-1.33.93-1.54.09.21.22.41.39.58.36.36.81.53,1.23.53.03.14.07.27.07.43,0,.9-.59,1.64-1.32,1.64Z"/>
  </g>
</svg>