<?xml version="1.0" encoding="UTF-8"?>
<svg id="_레이어_2" data-name="레이어 2" xmlns="http://www.w3.org/2000/svg" viewBox="0 0 23.27 21.93">
  <defs>
    <style>
      .cls-1 {
        stroke-width: 0px;
      }
    </style>
  </defs>
  <g id="_레이어_1-2" data-name="레이어 1">
    <g>
      <path class="cls-1" d="M4.21,21.93c-.08,0-.15-.02-.23-.05-.17-.08-.27-.26-.27-.45v-5.48c-2.36-1.73-3.71-4.21-3.71-6.84C0,4.09,4.92,0,10.96,0c1.58,0,3.1.27,4.52.81.26.1.39.39.29.64-.1.26-.39.39-.64.29-1.31-.49-2.71-.75-4.17-.75C5.47,1,1,4.64,1,9.12c0,2.38,1.28,4.63,3.51,6.18.17.12.24.32.21.51v4.65l4.29-3.13c.1-.14.26-.22.44-.19.56.07,1.06.11,1.52.11,2.57,0,5.01-.8,6.87-2.25.22-.17.53-.13.7.09.17.22.13.53-.09.7-2.04,1.59-4.7,2.46-7.49,2.46-.43,0-.89-.03-1.4-.08l-5.05,3.69c-.09.06-.19.1-.29.1Z"/>
      <path class="cls-1" d="M17.35,13.85c-.28,0-.5-.22-.5-.5V2.51c0-.28.22-.5.5-.5s.5.22.5.5v10.84c0,.28-.22.5-.5.5Z"/>
      <path class="cls-1" d="M22.77,8.43h-10.84c-.28,0-.5-.22-.5-.5s.22-.5.5-.5h10.84c.28,0,.5.22.5.5s-.22.5-.5.5Z"/>
    </g>
  </g>
</svg>