<?xml version="1.0" encoding="UTF-8"?>
<svg id="_레이어_2" data-name="레이어 2" xmlns="http://www.w3.org/2000/svg" viewBox="0 0 20.13 26.55">
  <defs>
    <style>
      .cls-1 {
        stroke-width: 0px;
      }
    </style>
  </defs>
  <g id="_레이어_1-2" data-name="레이어 1">
    <g>
      <path class="cls-1" d="M10.06,16.35c-5.22,0-7.11-.97-7.19-1.01-.24-.13-.33-.42-.22-.66L9.61.26c.17-.35.73-.35.9,0l6.95,14.42c.12.24.02.53-.22.66-.08.04-1.96,1.01-7.19,1.01ZM3.8,14.62c.8.26,2.72.72,6.27.72s5.47-.46,6.27-.72L10.06,1.63,3.8,14.62Z"/>
      <path class="cls-1" d="M10.06,22.71c-.28,0-.5-.22-.5-.5v-6.37c0-.28.22-.5.5-.5s.5.22.5.5v6.37c0,.28-.22.5-.5.5Z"/>
      <path class="cls-1" d="M10.06,26.55c-.06,0-.12-.01-.18-.03L.32,22.89c-.19-.07-.32-.26-.32-.46s.12-.39.31-.47l7.48-3.03c.25-.1.55.02.65.28.1.26-.02.55-.28.65l-6.3,2.55,8.19,3.1,8.19-3.1-6.3-2.55c-.26-.1-.38-.4-.28-.65.1-.26.4-.38.65-.28l7.48,3.03c.19.08.31.26.31.47s-.13.39-.32.46l-9.56,3.62c-.06.02-.12.03-.18.03Z"/>
    </g>
  </g>
</svg>