<?xml version="1.0" encoding="UTF-8"?>
<svg id="_레이어_2" data-name="레이어 2" xmlns="http://www.w3.org/2000/svg" viewBox="0 0 20.19 20.19">
  <defs>
    <style>
      .cls-1 {
        stroke-width: 0px;
      }
    </style>
  </defs>
  <g id="_레이어_1-2" data-name="레이어 1">
    <path class="cls-1" d="M10.09,0C4.52,0,0,4.52,0,10.09s4.52,10.09,10.09,10.09,10.09-4.52,10.09-10.09S15.67,0,10.09,0ZM11.25,15.39c0,.34-.12.63-.36.88-.24.25-.54.37-.89.37h-1.08v-8.24l2.33-.34v7.34ZM11.01,5.94c-.35.36-.75.54-1.21.54-.33,0-.6-.11-.82-.34-.22-.23-.33-.52-.33-.87,0-.46.17-.87.52-1.25.35-.37.75-.56,1.19-.56.34,0,.62.11.84.34.22.23.33.52.33.89,0,.47-.17.89-.52,1.25Z"/>
  </g>
</svg>