<?xml version="1.0" encoding="UTF-8"?>
<svg id="_레이어_2" data-name="레이어 2" xmlns="http://www.w3.org/2000/svg" viewBox="0 0 21.92 21.93">
  <defs>
    <style>
      .cls-1 {
        stroke-width: 0px;
      }
    </style>
  </defs>
  <g id="_레이어_1-2" data-name="레이어 1">
    <path class="cls-1" d="M4.21,21.93c-.08,0-.15-.02-.23-.05-.17-.08-.27-.26-.27-.45v-5.48c-2.36-1.73-3.71-4.21-3.71-6.84C0,4.09,4.92,0,10.96,0s10.96,4.09,10.96,9.12-4.92,9.12-10.96,9.12c-.44,0-.89-.03-1.4-.08l-5.05,3.69c-.09.06-.19.1-.29.1ZM4.71,15.8v4.65l4.29-3.13c.1-.14.26-.23.44-.19.57.07,1.05.1,1.52.1,5.49,0,9.96-3.64,9.96-8.12S16.45,1,10.96,1,1,4.64,1,9.12c0,2.38,1.28,4.63,3.51,6.18.17.12.24.32.21.51Z"/>
  </g>
</svg>