<?xml version="1.0" encoding="UTF-8"?>
<svg id="_레이어_2" data-name="레이어 2" xmlns="http://www.w3.org/2000/svg" viewBox="0 0 26.12 24">
  <defs>
    <style>
      .cls-1 {
        stroke-width: 0px;
      }
    </style>
  </defs>
  <g id="_레이어_1-2" data-name="레이어 1">
    <g>
      <polygon class="cls-1" points="9.57 11.01 11.13 11.01 10.38 8.66 9.57 11.01"/>
      <path class="cls-1" d="M13.06,0C5.85,0,0,4.62,0,10.33c0,3.71,2.48,6.97,6.2,8.79-.27,1.02-.99,3.69-1.13,4.27-.18.71.26.7.55.51.22-.15,3.58-2.43,5.03-3.42.79.12,1.6.18,2.42.18,7.21,0,13.06-4.62,13.06-10.33S20.28,0,13.06,0ZM6.69,12.99c0,.63-1.4.62-1.4,0,0-.86,0-4.55,0-4.55h-1.34c-.79,0-.79-1.29,0-1.29,0,0,3.15.03,4.09.03.84,0,.83,1.32,0,1.32-.89,0-1.34,0-1.34,0v4.51ZM11.83,13.15c-.33-.86-.24-.9-.24-.9h-2.46l-.27.94c-.29.66-1.52.12-1.24-.54.4-.91,1.59-4.35,1.92-5.08.13-.29.44-.4.75-.4.38,0,.78.17.89.4.24.51,1.54,4.1,1.92,5.1.26.7-1.01,1.18-1.28.48ZM16.82,13.46c-.63,0-2.06,0-2.7,0s-.53-.75-.53-.75c0,0,0-3.77,0-4.94,0-.41.36-.62.73-.62s.73.2.73.61c0,.85,0,4.33,0,4.33,0,0,1.15,0,1.79,0s.64,1.34,0,1.34ZM21.16,13.36l-1.77-2.42-.41.32s0,1.19,0,1.82c0,.54-1.38.54-1.38,0,0-.34.03-4.98.02-5.49,0-.28.36-.43.71-.43.33,0,.66.13.66.39.02.7,0,1.95,0,1.95,0,0,2-2,2.29-2.29.29-.29,1.2.62.91.92-.5.5-1.78,1.88-1.78,1.88l1.88,2.48c.36.47-.77,1.33-1.13.85Z"/>
    </g>
  </g>
</svg>